<svg width="60" height="48" viewBox="0 0 60 48" fill="none" xmlns="http://www.w3.org/2000/svg">
<path fill-rule="evenodd" clip-rule="evenodd" d="M0.909668 47.5001L0.933857 46.977C1.27834 39.5275 3.21915 33.7876 6.82373 29.8314L6.82576 29.8292C10.4621 25.8862 16.2668 23.0161 24.1638 21.1701C25.708 20.7842 27.5275 20.3775 29.6213 19.9502C31.7117 19.5236 33.2451 19.2042 34.2231 18.9915C35.1838 18.7827 36.1673 18.5109 37.1735 18.1757C38.2143 17.8004 38.8312 17.4123 39.1263 17.0515C39.4281 16.6827 39.5893 16.2228 39.5893 15.6401C39.5893 15.1251 39.4556 14.6955 39.2 14.3313C38.9414 13.9628 38.5376 13.6326 37.9548 13.3558C36.776 12.7958 34.9456 12.4921 32.4093 12.4921C29.0684 12.4921 26.6838 12.9818 25.1802 13.8919C23.7331 14.7678 22.9893 16.1683 22.9893 18.2001V18.8281H2.57528L2.59779 18.3066C2.86019 12.2275 5.38838 7.62317 10.1885 4.56254C14.9558 1.52286 21.9157 0.0361328 31.0013 0.0361328C40.3519 0.0361328 47.4423 1.27441 52.2118 3.80651C54.604 5.07651 56.4243 6.67836 57.6448 8.62226C58.8664 10.5679 59.4693 12.8279 59.4693 15.3841C59.4693 19.3386 58.2117 22.4739 55.651 24.72C53.1682 26.8925 49.1881 28.5587 43.7831 29.7599C41.7271 30.2311 39.2249 30.7442 36.2779 31.2995L36.271 31.3008C33.3279 31.8126 31.0918 32.2172 29.5608 32.5149C28.0537 32.808 26.5009 33.2483 24.9022 33.8373C23.9528 34.1871 23.1526 34.5693 22.4945 34.9801H58.5093V47.5001H0.909668ZM21.0173 35.4801C21.1978 35.3087 21.3954 35.142 21.6102 34.9801C22.4112 34.3765 23.4509 33.8391 24.7293 33.3681C26.3507 32.7708 27.9293 32.3228 29.4653 32.0241C31.0013 31.7255 33.2413 31.3201 36.1853 30.8081C39.1293 30.2535 41.6253 29.7415 43.6733 29.2721C49.0493 28.0775 52.932 26.4348 55.3213 24.3441C57.7533 22.2108 58.9693 19.2241 58.9693 15.3841C58.9693 5.48547 49.6467 0.536133 31.0013 0.536133C13.1667 0.536133 3.87434 6.30013 3.12434 17.8281C3.11358 17.9936 3.10457 18.1603 3.09732 18.3281H22.4893V18.2001C22.4893 16.0241 23.3 14.4455 24.9213 13.4641C26.5427 12.4828 29.0387 11.9921 32.4093 11.9921C37.5293 11.9921 40.0893 13.2081 40.0893 15.6401C40.0893 16.3228 39.8973 16.8988 39.5133 17.3681C39.1293 17.8375 38.404 18.2641 37.3373 18.6481C36.3133 18.9895 35.3107 19.2668 34.3293 19.4801C33.348 19.6935 31.812 20.0135 29.7213 20.4401C27.6307 20.8668 25.8173 21.2721 24.2813 21.6561C16.4307 23.4908 10.7347 26.3281 7.19332 30.1681C3.77409 33.921 1.86265 39.365 1.45901 46.5001C1.44964 46.6659 1.44107 46.8326 1.43332 47.0001H58.0093V35.4801H21.0173Z" fill="#B002E5" fill-opacity="0.5"/>
</svg>
